<svg width="14" height="14" viewBox="0 0 14 14" fill="none" xmlns="http://www.w3.org/2000/svg">
<g clip-path="url(#clip0_252_4)">
<path fill-rule="evenodd" clip-rule="evenodd" d="M6.96262 9.45399e-08H7.03738C8.54052 -6.41709e-06 9.71847 -1.29566e-05 10.6376 0.123558C11.5783 0.25004 12.3207 0.513982 12.9034 1.09665C13.486 1.67932 13.75 2.42165 13.8765 3.36242C14 4.28152 14 5.4595 14 6.96262V7.03738C14 8.54052 14 9.71847 13.8765 10.6376C13.75 11.5783 13.486 12.3207 12.9034 12.9034C12.3207 13.486 11.5783 13.75 10.6376 13.8765C9.71847 14 8.54052 14 7.03738 14H6.96262C5.4595 14 4.28152 14 3.36242 13.8765C2.42165 13.75 1.67932 13.486 1.09665 12.9034C0.513982 12.3207 0.25004 11.5783 0.123558 10.6376C-1.29566e-05 9.71847 -6.41709e-06 8.54052 9.45399e-08 7.03738V6.96262C-6.41709e-06 5.4595 -1.29566e-05 4.28152 0.123558 3.36242C0.25004 2.42165 0.513982 1.67932 1.09665 1.09665C1.67932 0.513982 2.42165 0.25004 3.36242 0.123558C4.28152 -1.29566e-05 5.4595 -6.41709e-06 6.96262 9.45399e-08ZM3.49256 1.09159C2.66011 1.20351 2.15825 1.41637 1.78731 1.78731C1.41637 2.15825 1.20351 2.66011 1.09159 3.49256C0.97778 4.33906 0.976744 5.45139 0.976744 7C0.976744 8.5486 0.97778 9.66091 1.09159 10.5074C1.20351 11.3399 1.41637 11.8417 1.78731 12.2127C2.15825 12.5837 2.66011 12.7965 3.49256 12.9084C4.33906 13.0222 5.45139 13.0233 7 13.0233C8.5486 13.0233 9.66091 13.0222 10.5074 12.9084C11.3399 12.7965 11.8417 12.5837 12.2127 12.2127C12.5837 11.8417 12.7965 11.3399 12.9084 10.5074C13.0222 9.66091 13.0233 8.5486 13.0233 7C13.0233 5.45139 13.0222 4.33906 12.9084 3.49256C12.7965 2.66011 12.5837 2.15825 12.2127 1.78731C11.8417 1.41637 11.3399 1.20351 10.5074 1.09159C9.66091 0.97778 8.5486 0.976744 7 0.976744C5.45139 0.976744 4.33906 0.97778 3.49256 1.09159Z" fill="#373333"/>
<path fill-rule="evenodd" clip-rule="evenodd" d="M4.72108 3.90698C4.93469 3.90698 5.12351 4.0458 5.18723 4.24968L6.81516 9.45899C6.89558 9.71646 6.75213 9.99034 6.49466 10.0708C6.23719 10.1512 5.96331 10.0078 5.88282 9.75032L5.42018 8.26977H4.02199L3.55932 9.75032C3.47887 10.0078 3.20495 10.1512 2.94751 10.0708C2.69007 9.99034 2.54658 9.71646 2.62704 9.45899L4.25494 4.24968C4.31866 4.0458 4.50748 3.90698 4.72108 3.90698ZM4.32722 7.29303H5.11495L4.72108 6.0327L4.32722 7.29303ZM7.81411 4.39535C7.81411 4.12564 8.03277 3.90698 8.30248 3.90698H9.6048C10.5938 3.90698 11.3955 4.70871 11.3955 5.69768C11.3955 6.50961 10.8551 7.19535 10.1144 7.4148L11.3212 9.34582C11.4642 9.57457 11.3947 9.87587 11.1659 10.0188C10.9372 10.1617 10.6359 10.0922 10.493 9.86349L9.00854 7.48838H8.79085V9.60466C8.79085 9.87437 8.57219 10.093 8.30248 10.093C8.03277 10.093 7.81411 9.87437 7.81411 9.60466V4.39535ZM8.79085 4.88373V6.51163H9.6048C10.0543 6.51163 10.4187 6.14724 10.4187 5.69768C10.4187 5.24814 10.0543 4.88373 9.6048 4.88373H8.79085Z" fill="#373333"/>
</g>
<defs>
<clipPath id="clip0_252_4">
<rect width="14" height="14" fill="white"/>
</clipPath>
</defs>
</svg>
