<svg width="12" height="12" viewBox="0 0 12 12" fill="none" xmlns="http://www.w3.org/2000/svg">
<path d="M10.31 3.48309L8.53119 1.70253C7.31519 0.485341 6.70721 -0.123256 6.05418 0.0208096C5.40121 0.164881 5.10511 0.972929 4.51297 2.58903L4.1122 3.68285C3.95434 4.11369 3.87541 4.32911 3.7334 4.49574C3.66968 4.57051 3.59718 4.63731 3.51747 4.6947C3.33983 4.82261 3.11883 4.88351 2.67684 5.00537C1.68062 5.27999 1.18252 5.41733 0.994813 5.74325C0.91367 5.88413 0.871442 6.04409 0.872468 6.20675C0.874844 6.58288 1.24017 6.94858 1.97084 7.67998L2.81958 8.52976L0.134067 11.2178C-0.0446891 11.3967 -0.0446891 11.6869 0.134067 11.8658C0.312823 12.0447 0.602651 12.0447 0.781407 11.8658L3.46701 9.17764L4.3466 10.0581C5.08189 10.7941 5.44956 11.1621 5.82798 11.1627C5.98746 11.1629 6.14418 11.1215 6.28272 11.0424C6.61145 10.8548 6.74951 10.353 7.02563 9.34948C7.14707 8.9083 7.20773 8.68768 7.33517 8.51008C7.39097 8.43238 7.45565 8.36146 7.528 8.29882C7.69318 8.15578 7.9072 8.07538 8.33524 7.91458L9.44163 7.49884C11.0399 6.89836 11.839 6.59812 11.9799 5.94689C12.1207 5.29559 11.5171 4.69142 10.31 3.48309Z" fill="#373333"/>
</svg>
