<svg width="14" height="14" viewBox="0 0 14 14" fill="none" xmlns="http://www.w3.org/2000/svg">
<g clip-path="url(#clip0_252_13)">
<path fill-rule="evenodd" clip-rule="evenodd" d="M6.65218 0.0821091C6.87112 -0.0273697 7.12888 -0.0273697 7.34782 0.0821091L13.57 3.19319C13.8336 3.32493 14 3.59425 14 3.88885C14 4.18344 13.8336 4.45276 13.57 4.58451L11.9523 5.39337L13.6036 6.32217C13.8544 6.46326 14.0068 6.73128 13.9998 7.01898C13.9928 7.30667 13.8275 7.56699 13.57 7.69571L11.9524 8.50452L13.6036 9.43325C13.8544 9.57434 14.0068 9.84236 13.9998 10.1301C13.9928 10.4178 13.8275 10.6781 13.57 10.8068L7.34782 13.9179C7.12888 14.0274 6.87112 14.0274 6.65218 13.9179L0.429948 10.8068C0.172542 10.6781 0.00724106 10.4178 0.000233279 10.1301C-0.00678228 9.84236 0.145639 9.57434 0.396465 9.43325L2.04756 8.50452L0.429948 7.69571C0.172542 7.56699 0.00724106 7.30667 0.000233279 7.01898C-0.00678228 6.73128 0.145639 6.46326 0.396465 6.32217L2.04769 5.39337L0.429948 4.58451C0.166444 4.45276 0 4.18344 0 3.88885C0 3.59425 0.166444 3.32493 0.429948 3.19319L6.65218 0.0821091ZM3.72734 9.34443L2.4361 10.0707L7 12.3526L11.5639 10.0707L10.2727 9.34443L7.34782 10.8068C7.12888 10.9163 6.87112 10.9163 6.65218 10.8068L3.72734 9.34443ZM7.34782 7.69556L10.2725 6.23328L11.5639 6.95963L7 9.24153L2.4361 6.95963L3.72747 6.23328L6.65218 7.69556C6.87112 7.80507 7.12888 7.80507 7.34782 7.69556Z" fill="#373333"/>
</g>
<defs>
<clipPath id="clip0_252_13">
<rect width="14" height="14" fill="white"/>
</clipPath>
</defs>
</svg>
