<svg width="14" height="12" viewBox="0 0 14 12" fill="none" xmlns="http://www.w3.org/2000/svg">
<g clip-path="url(#clip0_252_17)">
<path d="M6 0C5 0 4 1.02097 4 2V3H3.25V12H10.75V3H10V2C10 1 8.98951 0 8 0H6ZM6.5 1.25H7.5C8.35991 1.25 8.75 1.84942 8.75 2.5V3H5.25V2.5C5.25 1.87079 5.55579 1.25 6.5 1.25ZM2 3C0.64345 3 0 3.64345 0 5V10C0 11.3566 0.748318 12 2 12V3ZM12 3V12C13.2517 12 14 11.2517 14 10V5C14 3.6854 13.3775 3 12 3Z" fill="#373333"/>
</g>
<defs>
<clipPath id="clip0_252_17">
<rect width="14" height="12" fill="white"/>
</clipPath>
</defs>
</svg>
