<svg width="14" height="16" viewBox="0 0 14 16" fill="none" xmlns="http://www.w3.org/2000/svg">
<path d="M3.54688 0C3.51562 0.289958 3.5 0.583629 3.5 0.877637C3.5 2.62481 4.05 4.26329 4.97188 5.27595C4.78125 6.26498 4.27188 7.00084 3.59688 7.58481C5.1125 11.0211 8.78438 11.0616 10.35 7.70633C9.65 7.10886 9.15937 6.34937 8.99687 5.30633C9.9375 4.29705 10.5 2.64304 10.5 0.877637C10.5 0.583629 10.4812 0.289958 10.45 0H3.54688ZM2.03 8.60422C1.36844 8.94177 0.666562 9.23207 0 9.51899C0 12.2194 3 16 7 16C11 16 14 12.2194 14 9.51899C13.275 9.25907 12.5812 8.99578 11.95 8.69873C11.6687 10.0388 11.025 11.0582 10.1875 11.7536C10.2469 11.8954 10.2812 12.054 10.2812 12.2194C10.2812 12.8304 9.81563 13.3333 9.25 13.3333C9.07812 13.3333 8.91875 13.2861 8.775 13.2051C8.70312 14.3122 7.95625 15.2236 7 15.2236C6.04375 15.2236 5.29687 14.3122 5.225 13.2051C5.08125 13.2861 4.92188 13.3333 4.75 13.3333C4.18437 13.3333 3.71875 12.8304 3.71875 12.2194C3.71875 12.054 3.75313 11.8954 3.81563 11.7536C2.95625 11.0414 2.29687 9.99156 2.03 8.60422ZM7 11.443C6.35 11.443 5.78125 12.1249 5.78125 13.0295C5.78125 13.9342 6.35 14.616 7 14.616C7.65 14.616 8.21875 13.9342 8.21875 13.0295C8.21875 12.1249 7.65 11.443 7 11.443ZM4.75 11.7131C4.4875 11.7131 4.28125 11.9359 4.28125 12.2194C4.28125 12.503 4.4875 12.7257 4.75 12.7257C5.0125 12.7257 5.21875 12.503 5.21875 12.2194C5.21875 11.9359 5.0125 11.7131 4.75 11.7131ZM9.25 11.7131C8.9875 11.7131 8.78125 11.9359 8.78125 12.2194C8.78125 12.503 8.9875 12.7257 9.25 12.7257C9.5125 12.7257 9.71875 12.503 9.71875 12.2194C9.71875 11.9359 9.5125 11.7131 9.25 11.7131Z" fill="white"/>
</svg>
