<svg width="14" height="11" viewBox="0 0 14 11" fill="none" xmlns="http://www.w3.org/2000/svg">
<path d="M1.57932 3.24053C1.7864 3.24053 1.99144 3.27956 2.18274 3.3554C2.37403 3.43123 2.54784 3.54239 2.69421 3.68251C2.84059 3.82262 2.95667 3.98896 3.03583 4.17201C3.11498 4.35506 3.15566 4.55124 3.15553 4.74934V7.04955H10.8476V4.7484C10.8478 4.46541 10.9312 4.18819 11.0883 3.94842C11.2454 3.70865 11.4699 3.51602 11.7361 3.39255C12.0023 3.26909 12.2994 3.21977 12.5935 3.25023C12.8876 3.2807 13.1668 3.38972 13.3991 3.56483C13.6315 3.73994 13.8077 3.97408 13.9075 4.24047C14.0074 4.50685 14.0268 4.79474 13.9637 5.0712C13.9005 5.34767 13.7573 5.60156 13.5505 5.80384C13.3436 6.00612 13.0814 6.14863 12.7939 6.21507V10.5551C12.7936 10.673 12.7445 10.786 12.6574 10.8694C12.5702 10.9528 12.4521 10.9998 12.3288 11H1.67527C1.55201 10.9998 1.43388 10.9528 1.34673 10.8694C1.25957 10.786 1.2105 10.673 1.21024 10.5551V6.21507C0.834481 6.12926 0.504749 5.91443 0.283659 5.61137C0.0625686 5.30831 -0.0344829 4.93813 0.0109348 4.57113C0.0563525 4.20412 0.241076 3.86585 0.530027 3.62056C0.818977 3.37526 1.19301 3.24003 1.57932 3.24053ZM2.61609 2.40324C2.54329 2.37382 2.46914 2.34757 2.39386 2.32456V1.03865C2.39437 0.763662 2.50866 0.500046 2.71174 0.305421C2.91481 0.110796 3.19017 0.000989632 3.47762 0H10.5245C10.8121 0.000742548 11.0877 0.11044 11.291 0.305092C11.4943 0.499743 11.6087 0.763501 11.6093 1.03865V2.32456C11.534 2.34757 11.4598 2.37382 11.387 2.40324C10.9049 2.598 10.4936 2.92447 10.2045 3.34178C9.91546 3.7591 9.76148 4.24871 9.76187 4.74934V6.0109H4.24125V4.74934C4.24125 4.24879 4.08712 3.75934 3.79809 3.34209C3.50907 2.92485 3.09795 2.5983 2.61609 2.40324Z" fill="white"/>
</svg>
